<svg width="25" height="25" viewBox="0 0 25 25" fill="none" xmlns="http://www.w3.org/2000/svg">
<path d="M9.3125 8.5C8.91468 8.5 8.53314 8.65804 8.25184 8.93934C7.97054 9.22064 7.8125 9.60218 7.8125 10C7.8125 10.3978 7.97054 10.7794 8.25184 11.0607C8.53314 11.342 8.91468 11.5 9.3125 11.5C9.71032 11.5 10.0919 11.342 10.3732 11.0607C10.6545 10.7794 10.8125 10.3978 10.8125 10C10.8125 9.60218 10.6545 9.22064 10.3732 8.93934C10.0919 8.65804 9.71032 8.5 9.3125 8.5Z" stroke="#111111" stroke-width="1.5"/>
<path d="M19.0625 10H10.0625M8.0625 10H5.0625M5.0625 15H14.0625M16.0625 15H19.0625" stroke="#111111" stroke-width="1.5"/>
<path d="M14.8125 13.5C14.4147 13.5 14.0331 13.658 13.7518 13.9393C13.4705 14.2206 13.3125 14.6022 13.3125 15C13.3125 15.3978 13.4705 15.7794 13.7518 16.0607C14.0331 16.342 14.4147 16.5 14.8125 16.5C15.2103 16.5 15.5919 16.342 15.8732 16.0607C16.1545 15.7794 16.3125 15.3978 16.3125 15C16.3125 14.6022 16.1545 14.2206 15.8732 13.9393C15.5919 13.658 15.2103 13.5 14.8125 13.5Z" stroke="#111111" stroke-width="1.5"/>
</svg>
