<svg width="19" height="18" viewBox="0 0 19 18" fill="none" xmlns="http://www.w3.org/2000/svg">
<path d="M11.212 13.296C10.166 13.9224 8.96921 14.2521 7.75001 14.25C6.8634 14.2512 5.9853 14.0772 5.16618 13.7379C4.34707 13.3986 3.60308 12.9008 2.97701 12.273C2.34924 11.6469 1.8514 10.9029 1.51212 10.0838C1.17284 9.26471 0.998797 8.38661 1.00001 7.50001C1.00001 5.63601 1.75501 3.94901 2.97701 2.72701C3.60308 2.09924 4.34707 1.6014 5.16618 1.26212C5.9853 0.922837 6.8634 0.748797 7.75001 0.750006C9.61401 0.750006 11.301 1.50501 12.523 2.72701C13.1508 3.35308 13.6486 4.09707 13.9879 4.91618C14.3272 5.7353 14.5012 6.6134 14.5 7.50001C14.5017 8.69741 14.1838 9.87357 13.579 10.907C13.062 11.789 13.145 12.895 13.868 13.618L17.721 17.471" stroke="#111111" stroke-width="1.5"/>
</svg>
